M48
; DRILL file {KiCad 6.99.0-dfdedfa605} date Do 26 Mai 2022 14:32:42 +01
; FORMAT={-:-/ absolute / inch / decimal}
; #@! TF.CreationDate,2022-05-26T14:32:42+01:00
; #@! TF.GenerationSoftware,Kicad,Pcbnew,6.99.0-dfdedfa605
; #@! TF.FileFunction,Plated,1,2,PTH
FMAT,2
INCH
; #@! TA.AperFunction,Plated,PTH,ViaDrill
T1C0.0157
; #@! TA.AperFunction,Plated,PTH,ComponentDrill
T2C0.0276
; #@! TA.AperFunction,Plated,PTH,ComponentDrill
T3C0.0315
; #@! TA.AperFunction,Plated,PTH,ComponentDrill
T4C0.0394
%
G90
G05
T1
X1.696Y-1.793
X1.701Y-2.543
X1.701Y-3.293
X1.701Y-4.043
X2.446Y-1.793
X2.451Y-2.543
X2.451Y-3.293
X2.451Y-4.043
X3.196Y-1.793
X3.201Y-2.543
X3.201Y-3.293
X3.201Y-4.043
X3.236Y-4.558
X3.946Y-1.793
X3.951Y-2.543
X3.951Y-3.293
X3.951Y-4.043
X3.966Y-4.498
X4.126Y-3.618
X4.696Y-1.793
X4.701Y-2.543
X4.701Y-3.293
X4.701Y-4.043
X4.726Y-4.528
X4.92Y-1.385
X4.946Y-4.458
X5.446Y-1.793
X5.451Y-2.543
X5.451Y-3.293
X5.451Y-4.043
X5.486Y-1.6946
X5.5078Y-2.4546
X5.5078Y-2.958
X5.5078Y-3.588
X5.5078Y-3.708
X5.5089Y-2.4046
X5.5157Y-2.3189
X5.516Y-2.2323
X5.516Y-2.2756
X5.5171Y-2.3621
X5.5315Y-1.6825
X5.536Y-5.2087
X5.536Y-1.768
X5.536Y-2.538
X5.542Y-4.1501
X5.546Y-3.998
X5.6029Y-1.688
X5.626Y-3.888
X5.6265Y-1.728
X5.6337Y-3.8008
X5.6671Y-1.778
X5.6768Y-3.7972
X5.7051Y-3.4671
X5.7051Y-3.748
X5.7051Y-3.848
X5.7385Y-3.4155
X5.7986Y-3.753
X5.7986Y-3.803
X5.7986Y-3.853
X5.846Y-4.448
X5.856Y-1.588
X5.866Y-1.388
X5.866Y-1.878
X5.866Y-2.888
X5.866Y-3.708
X5.871Y-1.283
X5.876Y-3.858
X5.886Y-3.188
X5.946Y-2.958
X5.9534Y-3.028
X5.9934Y-3.803
X5.9934Y-3.953
X6.029Y-3.591
X6.1Y-5.5114
X6.126Y-1.468
X6.1427Y-5.3939
X6.206Y-1.458
X6.376Y-1.878
X6.386Y-4.058
X6.396Y-3.508
X6.409Y-2.848
X6.446Y-3.598
X6.466Y-3.638
X6.4994Y-2.538
X6.5Y-3.67
X6.5357Y-3.8199
X6.556Y-1.878
X6.556Y-2.878
X6.566Y-1.788
X6.566Y-1.988
X6.566Y-2.088
X6.566Y-2.188
X6.566Y-2.288
X6.566Y-2.488
X6.5701Y-3.7349
X6.576Y-1.388
X6.6739Y-3.5754
X6.6826Y-3.4074
X6.716Y-3.438
X6.716Y-3.588
X6.716Y-4.048
X6.96Y-5.1414
T3
X4.3464Y-1.2076
X4.3464Y-1.5076
X4.4464Y-1.2076
X4.4464Y-1.5076
X4.5464Y-1.2076
X4.5464Y-1.5076
X4.6464Y-1.2076
X4.6464Y-1.5076
T4
X6.0785Y-3.4157
X6.1785Y-3.4157
X6.2785Y-3.4157
X6.3785Y-3.4157
T2
G00X5.0942Y-1.166
M15
G01X5.0942Y-1.1935
M16
G05
G00X5.0981Y-1.5321
M15
G01X5.0981Y-1.5597
M16
G05
G00X5.1572Y-1.5321
M15
G01X5.1572Y-1.5597
M16
G05
G00X5.2438Y-1.5459
M15
G01X5.2162Y-1.5459
M16
G05
G00X5.3028Y-1.5321
M15
G01X5.3028Y-1.5597
M16
G05
G00X5.3619Y-1.5321
M15
G01X5.3619Y-1.5597
M16
G05
G00X5.3658Y-1.166
M15
G01X5.3658Y-1.1935
M16
G05
T0
M30
