%TF.GenerationSoftware,KiCad,Pcbnew,6.99.0-dfdedfa605*%
%TF.CreationDate,2022-05-26T14:32:38+01:00*%
%TF.ProjectId,keyboard-left,6b657962-6f61-4726-942d-6c6566742e6b,dev-1*%
%TF.SameCoordinates,Original*%
%TF.FileFunction,Soldermask,Top*%
%TF.FilePolarity,Negative*%
%FSLAX46Y46*%
G04 Gerber Fmt 4.6, Leading zero omitted, Abs format (unit mm)*
G04 Created by KiCad (PCBNEW 6.99.0-dfdedfa605) date 2022-05-26 14:32:38*
%MOMM*%
%LPD*%
G01*
G04 APERTURE LIST*
%ADD10C,1.750000*%
%ADD11C,3.050000*%
%ADD12C,4.000000*%
%ADD13R,1.600000X1.600000*%
%ADD14O,1.600000X1.600000*%
%ADD15O,1.600000X2.000000*%
%ADD16C,1.100000*%
%ADD17O,1.700000X0.850000*%
%ADD18O,0.850000X1.700000*%
%ADD19O,1.800000X1.800000*%
%ADD20O,1.500000X1.500000*%
G04 APERTURE END LIST*
D10*
%TO.C,SW1*%
X32283400Y-50623200D03*
D11*
X33553400Y-48083200D03*
D12*
X37363400Y-50623200D03*
D11*
X39903400Y-45543200D03*
D10*
X42443400Y-50623200D03*
%TD*%
%TO.C,SW20*%
X108483400Y-69673200D03*
D11*
X109753400Y-67133200D03*
D12*
X113563400Y-69673200D03*
D11*
X116103400Y-64593200D03*
D10*
X118643400Y-69673200D03*
%TD*%
%TO.C,SW10*%
X70383400Y-69673200D03*
D11*
X71653400Y-67133200D03*
D12*
X75463400Y-69673200D03*
D11*
X78003400Y-64593200D03*
D10*
X80543400Y-69673200D03*
%TD*%
%TO.C,SW25*%
X127533400Y-69673200D03*
D11*
X128803400Y-67133200D03*
D12*
X132613400Y-69673200D03*
D11*
X135153400Y-64593200D03*
D10*
X137693400Y-69673200D03*
%TD*%
%TO.C,SW17*%
X89433400Y-107773200D03*
D11*
X90703400Y-105233200D03*
D12*
X94513400Y-107773200D03*
D11*
X97053400Y-102693200D03*
D10*
X99593400Y-107773200D03*
%TD*%
D13*
%TO.C,SW29*%
X110398399Y-30673199D03*
D14*
X112938399Y-30673199D03*
X115478399Y-30673199D03*
X118018399Y-30673199D03*
X118018399Y-38293199D03*
X115478399Y-38293199D03*
X112938399Y-38293199D03*
X110398399Y-38293199D03*
%TD*%
D10*
%TO.C,SW26*%
X127533400Y-88723200D03*
D11*
X128803400Y-86183200D03*
D12*
X132613400Y-88723200D03*
D11*
X135153400Y-83643200D03*
D10*
X137693400Y-88723200D03*
%TD*%
D15*
%TO.C,Brd1*%
X154393399Y-86758199D03*
X156933399Y-86758199D03*
X159473399Y-86758199D03*
X162013399Y-86758199D03*
%TD*%
D10*
%TO.C,SW15*%
X89433400Y-69673200D03*
D11*
X90703400Y-67133200D03*
D12*
X94513400Y-69673200D03*
D11*
X97053400Y-64593200D03*
D10*
X99593400Y-69673200D03*
%TD*%
%TO.C,SW24*%
X127533400Y-50623200D03*
D11*
X128803400Y-48083200D03*
D12*
X132613400Y-50623200D03*
D11*
X135153400Y-45543200D03*
D10*
X137693400Y-50623200D03*
%TD*%
%TO.C,SW18*%
X162172496Y-134336763D03*
D11*
X164234637Y-132384309D03*
D12*
X166946135Y-136074225D03*
D11*
X171070417Y-132169318D03*
D10*
X171719774Y-137811687D03*
%TD*%
%TO.C,SW6*%
X51333400Y-69673200D03*
D11*
X52603400Y-67133200D03*
D12*
X56413400Y-69673200D03*
D11*
X58953400Y-64593200D03*
D10*
X61493400Y-69673200D03*
%TD*%
%TO.C,SW21*%
X108483400Y-88723200D03*
D11*
X109753400Y-86183200D03*
D12*
X113563400Y-88723200D03*
D11*
X116103400Y-83643200D03*
D10*
X118643400Y-88723200D03*
%TD*%
%TO.C,SW4*%
X32283400Y-107773200D03*
D11*
X33553400Y-105233200D03*
D12*
X37363400Y-107773200D03*
D11*
X39903400Y-102693200D03*
D10*
X42443400Y-107773200D03*
%TD*%
%TO.C,SW23*%
X137755868Y-145722424D03*
D11*
X139818009Y-143769970D03*
D12*
X142529507Y-147459886D03*
D11*
X146653789Y-143554979D03*
D10*
X147303146Y-149197348D03*
%TD*%
%TO.C,SW11*%
X70383400Y-88723200D03*
D11*
X71653400Y-86183200D03*
D12*
X75463400Y-88723200D03*
D11*
X78003400Y-83643200D03*
D10*
X80543400Y-88723200D03*
%TD*%
%TO.C,SW19*%
X108483400Y-50623200D03*
D11*
X109753400Y-48083200D03*
D12*
X113563400Y-50623200D03*
D11*
X116103400Y-45543200D03*
D10*
X118643400Y-50623200D03*
%TD*%
%TO.C,SW5*%
X51333400Y-50623200D03*
D11*
X52603400Y-48083200D03*
D12*
X56413400Y-50623200D03*
D11*
X58953400Y-45543200D03*
D10*
X61493400Y-50623200D03*
%TD*%
%TO.C,SW27*%
X127533400Y-107773200D03*
D11*
X128803400Y-105233200D03*
D12*
X132613400Y-107773200D03*
D11*
X135153400Y-102693200D03*
D10*
X137693400Y-107773200D03*
%TD*%
%TO.C,SW16*%
X89433400Y-88723200D03*
D11*
X90703400Y-86183200D03*
D12*
X94513400Y-88723200D03*
D11*
X97053400Y-83643200D03*
D10*
X99593400Y-88723200D03*
%TD*%
%TO.C,SW8*%
X51333400Y-107773200D03*
D11*
X52603400Y-105233200D03*
D12*
X56413400Y-107773200D03*
D11*
X58953400Y-102693200D03*
D10*
X61493400Y-107773200D03*
%TD*%
D16*
%TO.C,J2*%
X132842000Y-30566000D03*
X132842000Y-36566000D03*
D17*
X132841999Y-39265999D03*
D18*
X136191999Y-39265999D03*
X129491999Y-39265999D03*
X129391999Y-29965999D03*
X136291999Y-29965999D03*
X134691999Y-39265999D03*
X130991999Y-39265999D03*
%TD*%
D10*
%TO.C,SW13*%
X144271352Y-127821280D03*
D11*
X146333493Y-125868826D03*
D12*
X149044991Y-129558742D03*
D11*
X153169273Y-125653835D03*
D10*
X153818630Y-131296204D03*
%TD*%
%TO.C,SW3*%
X32283400Y-88723200D03*
D11*
X33553400Y-86183200D03*
D12*
X37363400Y-88723200D03*
D11*
X39903400Y-83643200D03*
D10*
X42443400Y-88723200D03*
%TD*%
%TO.C,SW28*%
X155657013Y-152237908D03*
D11*
X157719154Y-150285454D03*
D12*
X160430652Y-153975370D03*
D11*
X164554934Y-150070463D03*
D10*
X165204291Y-155712832D03*
%TD*%
%TO.C,SW7*%
X51333400Y-88723200D03*
D11*
X52603400Y-86183200D03*
D12*
X56413400Y-88723200D03*
D11*
X58953400Y-83643200D03*
D10*
X61493400Y-88723200D03*
%TD*%
%TO.C,SW14*%
X89433400Y-50623200D03*
D11*
X90703400Y-48083200D03*
D12*
X94513400Y-50623200D03*
D11*
X97053400Y-45543200D03*
D10*
X99593400Y-50623200D03*
%TD*%
%TO.C,SW9*%
X70383400Y-50623200D03*
D11*
X71653400Y-48083200D03*
D12*
X75463400Y-50623200D03*
D11*
X78003400Y-45543200D03*
D10*
X80543400Y-50623200D03*
%TD*%
%TO.C,SW2*%
X32283400Y-69673200D03*
D11*
X33553400Y-67133200D03*
D12*
X37363400Y-69673200D03*
D11*
X39903400Y-64593200D03*
D10*
X42443400Y-69673200D03*
%TD*%
%TO.C,SW22*%
X108483400Y-107773200D03*
D11*
X109753400Y-105233200D03*
D12*
X113563400Y-107773200D03*
D11*
X116103400Y-102693200D03*
D10*
X118643400Y-107773200D03*
%TD*%
%TO.C,SW12*%
X70383400Y-107773200D03*
D11*
X71653400Y-105233200D03*
D12*
X75463400Y-107773200D03*
D11*
X78003400Y-102693200D03*
D10*
X80543400Y-107773200D03*
%TD*%
D19*
%TO.C,U2*%
X160738399Y-30178199D03*
D20*
X160438399Y-33208199D03*
X155588399Y-33208199D03*
D19*
X155288399Y-30178199D03*
%TD*%
M02*
