M48
; DRILL file {KiCad 6.99.0-dfdedfa605} date Do 26 Mai 2022 14:32:42 +01
; FORMAT={-:-/ absolute / inch / decimal}
; #@! TF.CreationDate,2022-05-26T14:32:42+01:00
; #@! TF.GenerationSoftware,Kicad,Pcbnew,6.99.0-dfdedfa605
; #@! TF.FileFunction,NonPlated,1,2,NPTH
FMAT,2
INCH
; #@! TA.AperFunction,NonPlated,NPTH,ComponentDrill
T1C0.0433
; #@! TA.AperFunction,NonPlated,NPTH,ComponentDrill
T2C0.0591
; #@! TA.AperFunction,NonPlated,NPTH,ComponentDrill
T3C0.0689
; #@! TA.AperFunction,NonPlated,NPTH,ComponentDrill
T4C0.0709
; #@! TA.AperFunction,NonPlated,NPTH,ComponentDrill
T5C0.1201
; #@! TA.AperFunction,NonPlated,NPTH,ComponentDrill
T6C0.1575
%
G90
G05
T1
X5.23Y-1.2034
X5.23Y-1.4396
T2
X6.1255Y-1.3074
X6.3165Y-1.3074
T3
X1.271Y-1.993
X1.271Y-2.743
X1.271Y-3.493
X1.271Y-4.243
X1.671Y-1.993
X1.671Y-2.743
X1.671Y-3.493
X1.671Y-4.243
X2.021Y-1.993
X2.021Y-2.743
X2.021Y-3.493
X2.021Y-4.243
X2.421Y-1.993
X2.421Y-2.743
X2.421Y-3.493
X2.421Y-4.243
X2.771Y-1.993
X2.771Y-2.743
X2.771Y-3.493
X2.771Y-4.243
X3.171Y-1.993
X3.171Y-2.743
X3.171Y-3.493
X3.171Y-4.243
X3.521Y-1.993
X3.521Y-2.743
X3.521Y-3.493
X3.521Y-4.243
X3.921Y-1.993
X3.921Y-2.743
X3.921Y-3.493
X3.921Y-4.243
X4.271Y-1.993
X4.271Y-2.743
X4.271Y-3.493
X4.271Y-4.243
X4.671Y-1.993
X4.671Y-2.743
X4.671Y-3.493
X4.671Y-4.243
X5.021Y-1.993
X5.021Y-2.743
X5.021Y-3.493
X5.021Y-4.243
X5.421Y-1.993
X5.421Y-2.743
X5.421Y-3.493
X5.421Y-4.243
X5.4235Y-5.7371
X5.68Y-5.0323
X5.7993Y-5.8739
X6.0559Y-5.1691
X6.1282Y-5.9936
X6.3847Y-5.2888
X6.5041Y-6.1304
X6.7606Y-5.4257
T4
X6.1137Y-1.1881
X6.3283Y-1.1881
T5
X1.321Y-1.893
X1.321Y-2.643
X1.321Y-3.393
X1.321Y-4.143
X1.571Y-1.793
X1.571Y-2.543
X1.571Y-3.293
X1.571Y-4.043
X2.071Y-1.893
X2.071Y-2.643
X2.071Y-3.393
X2.071Y-4.143
X2.321Y-1.793
X2.321Y-2.543
X2.321Y-3.293
X2.321Y-4.043
X2.821Y-1.893
X2.821Y-2.643
X2.821Y-3.393
X2.821Y-4.143
X3.071Y-1.793
X3.071Y-2.543
X3.071Y-3.293
X3.071Y-4.043
X3.571Y-1.893
X3.571Y-2.643
X3.571Y-3.393
X3.571Y-4.143
X3.821Y-1.793
X3.821Y-2.543
X3.821Y-3.293
X3.821Y-4.043
X4.321Y-1.893
X4.321Y-2.643
X4.321Y-3.393
X4.321Y-4.143
X4.571Y-1.793
X4.571Y-2.543
X4.571Y-3.293
X4.571Y-4.043
X5.071Y-1.893
X5.071Y-2.643
X5.071Y-3.393
X5.071Y-4.143
X5.321Y-1.793
X5.321Y-2.543
X5.321Y-3.293
X5.321Y-4.043
X5.5046Y-5.6602
X5.7612Y-4.9555
X5.7738Y-5.6518
X6.0303Y-4.947
X6.2094Y-5.9168
X6.4659Y-5.212
X6.4785Y-5.9083
X6.7351Y-5.2035
T6
X1.471Y-1.993
X1.471Y-2.743
X1.471Y-3.493
X1.471Y-4.243
X2.221Y-1.993
X2.221Y-2.743
X2.221Y-3.493
X2.221Y-4.243
X2.971Y-1.993
X2.971Y-2.743
X2.971Y-3.493
X2.971Y-4.243
X3.721Y-1.993
X3.721Y-2.743
X3.721Y-3.493
X3.721Y-4.243
X4.471Y-1.993
X4.471Y-2.743
X4.471Y-3.493
X4.471Y-4.243
X5.221Y-1.993
X5.221Y-2.743
X5.221Y-3.493
X5.221Y-4.243
X5.6114Y-5.8055
X5.8679Y-5.1007
X6.3162Y-6.062
X6.5727Y-5.3573
T0
M30
