%TF.GenerationSoftware,KiCad,Pcbnew,6.99.0-dfdedfa605*%
%TF.CreationDate,2022-05-26T14:32:38+01:00*%
%TF.ProjectId,keyboard-left,6b657962-6f61-4726-942d-6c6566742e6b,dev-1*%
%TF.SameCoordinates,Original*%
%TF.FileFunction,Paste,Bot*%
%TF.FilePolarity,Positive*%
%FSLAX46Y46*%
G04 Gerber Fmt 4.6, Leading zero omitted, Abs format (unit mm)*
G04 Created by KiCad (PCBNEW 6.99.0-dfdedfa605) date 2022-05-26 14:32:38*
%MOMM*%
%LPD*%
G01*
G04 APERTURE LIST*
G04 Aperture macros list*
%AMRoundRect*
0 Rectangle with rounded corners*
0 $1 Rounding radius*
0 $2 $3 $4 $5 $6 $7 $8 $9 X,Y pos of 4 corners*
0 Add a 4 corners polygon primitive as box body*
4,1,4,$2,$3,$4,$5,$6,$7,$8,$9,$2,$3,0*
0 Add four circle primitives for the rounded corners*
1,1,$1+$1,$2,$3*
1,1,$1+$1,$4,$5*
1,1,$1+$1,$6,$7*
1,1,$1+$1,$8,$9*
0 Add four rect primitives between the rounded corners*
20,1,$1+$1,$2,$3,$4,$5,0*
20,1,$1+$1,$4,$5,$6,$7,0*
20,1,$1+$1,$6,$7,$8,$9,0*
20,1,$1+$1,$8,$9,$2,$3,0*%
%AMRotRect*
0 Rectangle, with rotation*
0 The origin of the aperture is its center*
0 $1 length*
0 $2 width*
0 $3 Rotation angle, in degrees counterclockwise*
0 Add horizontal line*
21,1,$1,$2,0,0,$3*%
G04 Aperture macros list end*
%ADD10RoundRect,0.250000X-1.025000X-1.000000X1.025000X-1.000000X1.025000X1.000000X-1.025000X1.000000X0*%
%ADD11RoundRect,0.250000X-1.305205X-0.589122X0.621165X-1.290263X1.305205X0.589122X-0.621165X1.290263X0*%
%ADD12R,1.200000X0.900000*%
%ADD13RotRect,0.900000X1.200000X70.000000*%
%ADD14RoundRect,0.150000X0.825000X0.150000X-0.825000X0.150000X-0.825000X-0.150000X0.825000X-0.150000X0*%
%ADD15RoundRect,0.250000X-0.450000X0.262500X-0.450000X-0.262500X0.450000X-0.262500X0.450000X0.262500X0*%
%ADD16RoundRect,0.250000X-0.250000X-0.475000X0.250000X-0.475000X0.250000X0.475000X-0.250000X0.475000X0*%
%ADD17R,1.500000X0.800000*%
%ADD18R,2.000000X1.450000*%
G04 APERTURE END LIST*
D10*
%TO.C,SW1*%
X30278400Y-48083200D03*
X43205400Y-45543200D03*
%TD*%
%TO.C,SW20*%
X106478400Y-67133200D03*
X119405400Y-64593200D03*
%TD*%
%TO.C,SW10*%
X68378400Y-67133200D03*
X81305400Y-64593200D03*
%TD*%
%TO.C,SW25*%
X125528400Y-67133200D03*
X138455400Y-64593200D03*
%TD*%
%TO.C,SW17*%
X87428400Y-105233200D03*
X100355400Y-102693200D03*
%TD*%
%TO.C,SW26*%
X125528400Y-86183200D03*
X138455400Y-83643200D03*
%TD*%
%TO.C,SW15*%
X87428400Y-67133200D03*
X100355400Y-64593200D03*
%TD*%
%TO.C,SW24*%
X125528400Y-48083200D03*
X138455400Y-45543200D03*
%TD*%
D11*
%TO.C,SW18*%
X161157144Y-131264193D03*
X174173282Y-133298668D03*
%TD*%
D10*
%TO.C,SW6*%
X49328400Y-67133200D03*
X62255400Y-64593200D03*
%TD*%
%TO.C,SW21*%
X106478400Y-86183200D03*
X119405400Y-83643200D03*
%TD*%
%TO.C,SW4*%
X30278400Y-105233200D03*
X43205400Y-102693200D03*
%TD*%
D11*
%TO.C,SW23*%
X136740516Y-142649854D03*
X149756654Y-144684329D03*
%TD*%
D10*
%TO.C,SW11*%
X68378400Y-86183200D03*
X81305400Y-83643200D03*
%TD*%
%TO.C,SW19*%
X106478400Y-48083200D03*
X119405400Y-45543200D03*
%TD*%
%TO.C,SW5*%
X49328400Y-48083200D03*
X62255400Y-45543200D03*
%TD*%
%TO.C,SW27*%
X125528400Y-105233200D03*
X138455400Y-102693200D03*
%TD*%
%TO.C,SW16*%
X87428400Y-86183200D03*
X100355400Y-83643200D03*
%TD*%
%TO.C,SW8*%
X49328400Y-105233200D03*
X62255400Y-102693200D03*
%TD*%
D11*
%TO.C,SW13*%
X143256000Y-124748710D03*
X156272138Y-126783185D03*
%TD*%
D10*
%TO.C,SW3*%
X30278400Y-86183200D03*
X43205400Y-83643200D03*
%TD*%
D11*
%TO.C,SW28*%
X154641661Y-149165338D03*
X167657799Y-151199813D03*
%TD*%
D10*
%TO.C,SW7*%
X49328400Y-86183200D03*
X62255400Y-83643200D03*
%TD*%
%TO.C,SW14*%
X87428400Y-48083200D03*
X100355400Y-45543200D03*
%TD*%
%TO.C,SW9*%
X68378400Y-48083200D03*
X81305400Y-45543200D03*
%TD*%
%TO.C,SW2*%
X30278400Y-67133200D03*
X43205400Y-64593200D03*
%TD*%
%TO.C,SW22*%
X106478400Y-105233200D03*
X119405400Y-102693200D03*
%TD*%
%TO.C,SW12*%
X68378400Y-105233200D03*
X81305400Y-102693200D03*
%TD*%
D12*
%TO.C,D10*%
X68478399Y-75133199D03*
X68478399Y-71833199D03*
%TD*%
%TO.C,D2*%
X30378399Y-75133199D03*
X30378399Y-71833199D03*
%TD*%
%TO.C,D22*%
X106578399Y-113233199D03*
X106578399Y-109933199D03*
%TD*%
D13*
%TO.C,D28*%
X151999468Y-156717080D03*
X153128134Y-153616094D03*
%TD*%
%TO.C,D18*%
X158514952Y-138815936D03*
X159643618Y-135714950D03*
%TD*%
D12*
%TO.C,D9*%
X68478399Y-56083199D03*
X68478399Y-52783199D03*
%TD*%
%TO.C,D19*%
X106578399Y-56083199D03*
X106578399Y-52783199D03*
%TD*%
%TO.C,D5*%
X49428399Y-56083199D03*
X49428399Y-52783199D03*
%TD*%
%TO.C,D21*%
X106578399Y-94183199D03*
X106578399Y-90883199D03*
%TD*%
%TO.C,D27*%
X125628399Y-113233199D03*
X125628399Y-109933199D03*
%TD*%
%TO.C,D25*%
X125628399Y-75133199D03*
X125628399Y-71833199D03*
%TD*%
%TO.C,D8*%
X49428399Y-113233199D03*
X49428399Y-109933199D03*
%TD*%
%TO.C,D4*%
X30378399Y-113233199D03*
X30378399Y-109933199D03*
%TD*%
D13*
%TO.C,D23*%
X134098323Y-150201596D03*
X135226989Y-147100610D03*
%TD*%
D12*
%TO.C,D20*%
X106578399Y-75133199D03*
X106578399Y-71833199D03*
%TD*%
D14*
%TO.C,U1*%
X152233400Y-92786200D03*
X152233400Y-94056200D03*
X152233400Y-95326200D03*
X152233400Y-96596200D03*
X152233400Y-97866200D03*
X152233400Y-99136200D03*
X152233400Y-100406200D03*
X152233400Y-101676200D03*
X147283400Y-101676200D03*
X147283400Y-100406200D03*
X147283400Y-99136200D03*
X147283400Y-97866200D03*
X147283400Y-96596200D03*
X147283400Y-95326200D03*
X147283400Y-94056200D03*
X147283400Y-92786200D03*
%TD*%
D13*
%TO.C,D13*%
X140613807Y-132300452D03*
X141742473Y-129199466D03*
%TD*%
D15*
%TO.C,R2*%
X153314400Y-89206700D03*
X153314400Y-91031700D03*
%TD*%
D16*
%TO.C,C1*%
X148808400Y-88087200D03*
X150708400Y-88087200D03*
%TD*%
D12*
%TO.C,D26*%
X125628399Y-94183199D03*
X125628399Y-90883199D03*
%TD*%
D17*
%TO.C,J1*%
X167986399Y-99288199D03*
X167986399Y-98188199D03*
X167986399Y-97088199D03*
X167986399Y-95988199D03*
X167986399Y-94888199D03*
X167986399Y-93788199D03*
X167986399Y-92688199D03*
X167986399Y-91588199D03*
D18*
X162286399Y-102963199D03*
X170586399Y-102963199D03*
X162286399Y-89213199D03*
X170586399Y-89213199D03*
%TD*%
D12*
%TO.C,D14*%
X87528399Y-56083199D03*
X87528399Y-52783199D03*
%TD*%
%TO.C,D6*%
X49428399Y-75133199D03*
X49428399Y-71833199D03*
%TD*%
%TO.C,D11*%
X68478399Y-94183199D03*
X68478399Y-90883199D03*
%TD*%
%TO.C,D16*%
X87528399Y-94183199D03*
X87528399Y-90883199D03*
%TD*%
%TO.C,D3*%
X30378399Y-94183199D03*
X30378399Y-90883199D03*
%TD*%
%TO.C,D15*%
X87528399Y-75133199D03*
X87528399Y-71833199D03*
%TD*%
%TO.C,D24*%
X125628399Y-56083199D03*
X125628399Y-52783199D03*
%TD*%
%TO.C,D17*%
X87528399Y-113233199D03*
X87528399Y-109933199D03*
%TD*%
D15*
%TO.C,R1*%
X147218400Y-82602700D03*
X147218400Y-84427700D03*
%TD*%
D12*
%TO.C,D1*%
X30378399Y-56083199D03*
X30378399Y-52783199D03*
%TD*%
%TO.C,D12*%
X68478399Y-113233199D03*
X68478399Y-109933199D03*
%TD*%
%TO.C,D7*%
X49428399Y-94183199D03*
X49428399Y-90883199D03*
%TD*%
M02*
