%TF.GenerationSoftware,KiCad,Pcbnew,6.99.0-dfdedfa605*%
%TF.CreationDate,2022-05-26T14:34:28+01:00*%
%TF.ProjectId,keyboard-right,6b657962-6f61-4726-942d-72696768742e,dev-1*%
%TF.SameCoordinates,Original*%
%TF.FileFunction,Soldermask,Bot*%
%TF.FilePolarity,Negative*%
%FSLAX46Y46*%
G04 Gerber Fmt 4.6, Leading zero omitted, Abs format (unit mm)*
G04 Created by KiCad (PCBNEW 6.99.0-dfdedfa605) date 2022-05-26 14:34:28*
%MOMM*%
%LPD*%
G01*
G04 APERTURE LIST*
%ADD10O,1.800000X1.800000*%
%ADD11O,1.500000X1.500000*%
%ADD12C,1.100000*%
%ADD13O,1.700000X0.850000*%
%ADD14O,0.850000X1.700000*%
%ADD15C,1.750000*%
%ADD16C,3.050000*%
%ADD17C,4.000000*%
%ADD18R,1.600000X1.600000*%
%ADD19O,1.600000X1.600000*%
%ADD20O,1.600000X2.000000*%
G04 APERTURE END LIST*
D10*
%TO.C,U2*%
X155288399Y-30178199D03*
D11*
X155588399Y-33208199D03*
X160438399Y-33208199D03*
D10*
X160738399Y-30178199D03*
%TD*%
D12*
%TO.C,J2*%
X132842000Y-30566000D03*
X132842000Y-36566000D03*
D13*
X132841999Y-39265999D03*
D14*
X136191999Y-39265999D03*
X129491999Y-39265999D03*
X129391999Y-29965999D03*
X136291999Y-29965999D03*
X134691999Y-39265999D03*
X130991999Y-39265999D03*
%TD*%
D15*
%TO.C,SW1*%
X42320900Y-50623200D03*
D16*
X41050900Y-48083200D03*
D17*
X37240900Y-50623200D03*
D16*
X34700900Y-45543200D03*
D15*
X32160900Y-50623200D03*
%TD*%
%TO.C,SW20*%
X118520900Y-69673200D03*
D16*
X117250900Y-67133200D03*
D17*
X113440900Y-69673200D03*
D16*
X110900900Y-64593200D03*
D15*
X108360900Y-69673200D03*
%TD*%
%TO.C,SW10*%
X80420900Y-69673200D03*
D16*
X79150900Y-67133200D03*
D17*
X75340900Y-69673200D03*
D16*
X72800900Y-64593200D03*
D15*
X70260900Y-69673200D03*
%TD*%
%TO.C,SW25*%
X137570900Y-69673200D03*
D16*
X136300900Y-67133200D03*
D17*
X132490900Y-69673200D03*
D16*
X129950900Y-64593200D03*
D15*
X127410900Y-69673200D03*
%TD*%
%TO.C,SW17*%
X99470900Y-107773200D03*
D16*
X98200900Y-105233200D03*
D17*
X94390900Y-107773200D03*
D16*
X91850900Y-102693200D03*
D15*
X89310900Y-107773200D03*
%TD*%
D18*
%TO.C,SW29*%
X118049999Y-30673199D03*
D19*
X115509999Y-30673199D03*
X112969999Y-30673199D03*
X110429999Y-30673199D03*
X110429999Y-38293199D03*
X112969999Y-38293199D03*
X115509999Y-38293199D03*
X118049999Y-38293199D03*
%TD*%
D15*
%TO.C,SW26*%
X137570900Y-88723200D03*
D16*
X136300900Y-86183200D03*
D17*
X132490900Y-88723200D03*
D16*
X129950900Y-83643200D03*
D15*
X127410900Y-88723200D03*
%TD*%
D20*
%TO.C,Brd1*%
X161633399Y-86758199D03*
X159093399Y-86758199D03*
X156553399Y-86758199D03*
X154013399Y-86758199D03*
%TD*%
D15*
%TO.C,SW15*%
X99470900Y-69673200D03*
D16*
X98200900Y-67133200D03*
D17*
X94390900Y-69673200D03*
D16*
X91850900Y-64593200D03*
D15*
X89310900Y-69673200D03*
%TD*%
%TO.C,SW24*%
X137570900Y-50623200D03*
D16*
X136300900Y-48083200D03*
D17*
X132490900Y-50623200D03*
D16*
X129950900Y-45543200D03*
D15*
X127410900Y-50623200D03*
%TD*%
%TO.C,SW18*%
X171719774Y-137811687D03*
D16*
X171395095Y-134990502D03*
D17*
X166946135Y-136074225D03*
D16*
X166296778Y-130431855D03*
D15*
X162172496Y-134336763D03*
%TD*%
%TO.C,SW6*%
X61370900Y-69673200D03*
D16*
X60100900Y-67133200D03*
D17*
X56290900Y-69673200D03*
D16*
X53750900Y-64593200D03*
D15*
X51210900Y-69673200D03*
%TD*%
%TO.C,SW21*%
X118520900Y-88723200D03*
D16*
X117250900Y-86183200D03*
D17*
X113440900Y-88723200D03*
D16*
X110900900Y-83643200D03*
D15*
X108360900Y-88723200D03*
%TD*%
%TO.C,SW4*%
X42320900Y-107773200D03*
D16*
X41050900Y-105233200D03*
D17*
X37240900Y-107773200D03*
D16*
X34700900Y-102693200D03*
D15*
X32160900Y-107773200D03*
%TD*%
%TO.C,SW23*%
X147303146Y-149197348D03*
D16*
X146978467Y-146376163D03*
D17*
X142529507Y-147459886D03*
D16*
X141880150Y-141817516D03*
D15*
X137755868Y-145722424D03*
%TD*%
%TO.C,SW11*%
X80420900Y-88723200D03*
D16*
X79150900Y-86183200D03*
D17*
X75340900Y-88723200D03*
D16*
X72800900Y-83643200D03*
D15*
X70260900Y-88723200D03*
%TD*%
%TO.C,SW19*%
X118520900Y-50623200D03*
D16*
X117250900Y-48083200D03*
D17*
X113440900Y-50623200D03*
D16*
X110900900Y-45543200D03*
D15*
X108360900Y-50623200D03*
%TD*%
%TO.C,SW5*%
X61370900Y-50623200D03*
D16*
X60100900Y-48083200D03*
D17*
X56290900Y-50623200D03*
D16*
X53750900Y-45543200D03*
D15*
X51210900Y-50623200D03*
%TD*%
%TO.C,SW27*%
X137570900Y-107773200D03*
D16*
X136300900Y-105233200D03*
D17*
X132490900Y-107773200D03*
D16*
X129950900Y-102693200D03*
D15*
X127410900Y-107773200D03*
%TD*%
%TO.C,SW16*%
X99470900Y-88723200D03*
D16*
X98200900Y-86183200D03*
D17*
X94390900Y-88723200D03*
D16*
X91850900Y-83643200D03*
D15*
X89310900Y-88723200D03*
%TD*%
%TO.C,SW8*%
X61370900Y-107773200D03*
D16*
X60100900Y-105233200D03*
D17*
X56290900Y-107773200D03*
D16*
X53750900Y-102693200D03*
D15*
X51210900Y-107773200D03*
%TD*%
%TO.C,SW13*%
X153818630Y-131296204D03*
D16*
X153493951Y-128475019D03*
D17*
X149044991Y-129558742D03*
D16*
X148395634Y-123916372D03*
D15*
X144271352Y-127821280D03*
%TD*%
%TO.C,SW3*%
X42320900Y-88723200D03*
D16*
X41050900Y-86183200D03*
D17*
X37240900Y-88723200D03*
D16*
X34700900Y-83643200D03*
D15*
X32160900Y-88723200D03*
%TD*%
%TO.C,SW28*%
X165204291Y-155712832D03*
D16*
X164879612Y-152891647D03*
D17*
X160430652Y-153975370D03*
D16*
X159781295Y-148333000D03*
D15*
X155657013Y-152237908D03*
%TD*%
%TO.C,SW7*%
X61370900Y-88723200D03*
D16*
X60100900Y-86183200D03*
D17*
X56290900Y-88723200D03*
D16*
X53750900Y-83643200D03*
D15*
X51210900Y-88723200D03*
%TD*%
%TO.C,SW14*%
X99470900Y-50623200D03*
D16*
X98200900Y-48083200D03*
D17*
X94390900Y-50623200D03*
D16*
X91850900Y-45543200D03*
D15*
X89310900Y-50623200D03*
%TD*%
%TO.C,SW9*%
X80420900Y-50623200D03*
D16*
X79150900Y-48083200D03*
D17*
X75340900Y-50623200D03*
D16*
X72800900Y-45543200D03*
D15*
X70260900Y-50623200D03*
%TD*%
%TO.C,SW2*%
X42320900Y-69673200D03*
D16*
X41050900Y-67133200D03*
D17*
X37240900Y-69673200D03*
D16*
X34700900Y-64593200D03*
D15*
X32160900Y-69673200D03*
%TD*%
%TO.C,SW22*%
X118520900Y-107773200D03*
D16*
X117250900Y-105233200D03*
D17*
X113440900Y-107773200D03*
D16*
X110900900Y-102693200D03*
D15*
X108360900Y-107773200D03*
%TD*%
%TO.C,SW12*%
X80420900Y-107773200D03*
D16*
X79150900Y-105233200D03*
D17*
X75340900Y-107773200D03*
D16*
X72800900Y-102693200D03*
D15*
X70260900Y-107773200D03*
%TD*%
M02*
