M48
; DRILL file {KiCad 6.99.0-dfdedfa605} date Do 26 Mai 2022 14:34:30 +01
; FORMAT={-:-/ absolute / inch / decimal}
; #@! TF.CreationDate,2022-05-26T14:34:30+01:00
; #@! TF.GenerationSoftware,Kicad,Pcbnew,6.99.0-dfdedfa605
; #@! TF.FileFunction,NonPlated,1,2,NPTH
FMAT,2
INCH
; #@! TA.AperFunction,NonPlated,NPTH,ComponentDrill
T1C0.0433
; #@! TA.AperFunction,NonPlated,NPTH,ComponentDrill
T2C0.0591
; #@! TA.AperFunction,NonPlated,NPTH,ComponentDrill
T3C0.0689
; #@! TA.AperFunction,NonPlated,NPTH,ComponentDrill
T4C0.0709
; #@! TA.AperFunction,NonPlated,NPTH,ComponentDrill
T5C0.1201
; #@! TA.AperFunction,NonPlated,NPTH,ComponentDrill
T6C0.1575
%
G90
G05
T1
X5.23Y-1.2034
X5.23Y-1.4396
T2
X6.1255Y-1.3074
X6.3165Y-1.3074
T3
X1.2662Y-1.993
X1.2662Y-2.743
X1.2662Y-3.493
X1.2662Y-4.243
X1.6662Y-1.993
X1.6662Y-2.743
X1.6662Y-3.493
X1.6662Y-4.243
X2.0162Y-1.993
X2.0162Y-2.743
X2.0162Y-3.493
X2.0162Y-4.243
X2.4162Y-1.993
X2.4162Y-2.743
X2.4162Y-3.493
X2.4162Y-4.243
X2.7662Y-1.993
X2.7662Y-2.743
X2.7662Y-3.493
X2.7662Y-4.243
X3.1662Y-1.993
X3.1662Y-2.743
X3.1662Y-3.493
X3.1662Y-4.243
X3.5162Y-1.993
X3.5162Y-2.743
X3.5162Y-3.493
X3.5162Y-4.243
X3.9162Y-1.993
X3.9162Y-2.743
X3.9162Y-3.493
X3.9162Y-4.243
X4.2662Y-1.993
X4.2662Y-2.743
X4.2662Y-3.493
X4.2662Y-4.243
X4.6662Y-1.993
X4.6662Y-2.743
X4.6662Y-3.493
X4.6662Y-4.243
X5.0162Y-1.993
X5.0162Y-2.743
X5.0162Y-3.493
X5.0162Y-4.243
X5.4162Y-1.993
X5.4162Y-2.743
X5.4162Y-3.493
X5.4162Y-4.243
X5.4235Y-5.7371
X5.68Y-5.0323
X5.7993Y-5.8739
X6.0559Y-5.1691
X6.1282Y-5.9936
X6.3847Y-5.2888
X6.5041Y-6.1304
X6.7606Y-5.4257
T4
X6.1137Y-1.1881
X6.3283Y-1.1881
T5
X1.3662Y-1.793
X1.3662Y-2.543
X1.3662Y-3.293
X1.3662Y-4.043
X1.6162Y-1.893
X1.6162Y-2.643
X1.6162Y-3.393
X1.6162Y-4.143
X2.1162Y-1.793
X2.1162Y-2.543
X2.1162Y-3.293
X2.1162Y-4.043
X2.3662Y-1.893
X2.3662Y-2.643
X2.3662Y-3.393
X2.3662Y-4.143
X2.8662Y-1.793
X2.8662Y-2.543
X2.8662Y-3.293
X2.8662Y-4.043
X3.1162Y-1.893
X3.1162Y-2.643
X3.1162Y-3.393
X3.1162Y-4.143
X3.6162Y-1.793
X3.6162Y-2.543
X3.6162Y-3.293
X3.6162Y-4.043
X3.8662Y-1.893
X3.8662Y-2.643
X3.8662Y-3.393
X3.8662Y-4.143
X4.3662Y-1.793
X4.3662Y-2.543
X4.3662Y-3.293
X4.3662Y-4.043
X4.6162Y-1.893
X4.6162Y-2.643
X4.6162Y-3.393
X4.6162Y-4.143
X5.1162Y-1.793
X5.1162Y-2.543
X5.1162Y-3.293
X5.1162Y-4.043
X5.3662Y-1.893
X5.3662Y-2.643
X5.3662Y-3.393
X5.3662Y-4.143
X5.5858Y-5.5834
X5.7866Y-5.7628
X5.8423Y-4.8786
X6.0431Y-5.0581
X6.2906Y-5.8399
X6.4913Y-6.0194
X6.5471Y-5.1351
X6.7478Y-5.3146
T6
X1.4662Y-1.993
X1.4662Y-2.743
X1.4662Y-3.493
X1.4662Y-4.243
X2.2162Y-1.993
X2.2162Y-2.743
X2.2162Y-3.493
X2.2162Y-4.243
X2.9662Y-1.993
X2.9662Y-2.743
X2.9662Y-3.493
X2.9662Y-4.243
X3.7162Y-1.993
X3.7162Y-2.743
X3.7162Y-3.493
X3.7162Y-4.243
X4.4662Y-1.993
X4.4662Y-2.743
X4.4662Y-3.493
X4.4662Y-4.243
X5.2162Y-1.993
X5.2162Y-2.743
X5.2162Y-3.493
X5.2162Y-4.243
X5.6114Y-5.8055
X5.8679Y-5.1007
X6.3162Y-6.062
X6.5727Y-5.3573
T0
M30
