M48
; DRILL file {KiCad 6.99.0-dfdedfa605} date Do 26 Mai 2022 14:34:30 +01
; FORMAT={-:-/ absolute / inch / decimal}
; #@! TF.CreationDate,2022-05-26T14:34:30+01:00
; #@! TF.GenerationSoftware,Kicad,Pcbnew,6.99.0-dfdedfa605
; #@! TF.FileFunction,Plated,1,2,PTH
FMAT,2
INCH
; #@! TA.AperFunction,Plated,PTH,ViaDrill
T1C0.0157
; #@! TA.AperFunction,Plated,PTH,ComponentDrill
T2C0.0276
; #@! TA.AperFunction,Plated,PTH,ComponentDrill
T3C0.0315
; #@! TA.AperFunction,Plated,PTH,ComponentDrill
T4C0.0394
%
G90
G05
T1
X1.2362Y-1.793
X1.7402Y-3.7087
X1.7402Y-4.4567
X1.7421Y-2.2047
X1.7421Y-2.9626
X1.966Y-2.0841
X2.4912Y-2.208
X2.4912Y-2.958
X2.4912Y-3.708
X2.4912Y-4.458
X2.716Y-2.1254
X3.2412Y-2.208
X3.2412Y-2.958
X3.2412Y-3.708
X3.2412Y-4.458
X3.466Y-2.1746
X3.9912Y-2.208
X3.9912Y-2.958
X3.9912Y-3.708
X3.9912Y-4.458
X4.1732Y-3.7598
X4.216Y-2.2869
X4.7412Y-2.208
X4.7412Y-2.958
X4.7412Y-3.708
X4.7412Y-4.458
X4.813Y-3.9075
X4.8189Y-1.3346
X4.8563Y-3.6516
X4.8622Y-3.8484
X4.9311Y-3.7914
X4.9803Y-2.5295
X5.378Y-1.378
X5.378Y-1.4212
X5.4724Y-3.874
X5.4823Y-4.0256
X5.4912Y-2.208
X5.4912Y-2.958
X5.4912Y-3.708
X5.4912Y-4.458
X5.5123Y-3.8517
X5.5217Y-3.9921
X5.5669Y-3.8583
X5.5827Y-3.7874
X5.6142Y-3.9528
X5.6909Y-1.7913
X5.7087Y-4.061
X5.7126Y-1.5512
X5.7283Y-4.5079
X5.7874Y-6.1024
X5.7986Y-3.653
X5.7986Y-3.703
X5.7986Y-3.753
X5.7986Y-3.803
X5.7986Y-3.853
X5.7986Y-3.903
X5.8031Y-3.9528
X5.8661Y-1.9882
X5.8661Y-2.0866
X5.8661Y-2.4803
X5.871Y-2.283
X5.871Y-2.583
X5.871Y-2.783
X5.871Y-2.983
X5.876Y-2.185
X5.876Y-2.6772
X5.8819Y-2.8937
X5.9094Y-3.8031
X5.9639Y-2.6286
X5.9941Y-3.75
X5.9941Y-3.9075
X6.0138Y-2.6378
X6.0472Y-5.4016
X6.063Y-1.3701
X6.0728Y-4.0945
X6.1142Y-2.9882
X6.2008Y-3.2874
X6.2953Y-4.8819
X6.315Y-1.4252
X6.454Y-2.7383
X6.4567Y-3.4646
X6.4764Y-3.4154
X6.5011Y-6.3581
X6.5157Y-3.2185
X6.5236Y-3.5906
X6.5394Y-3.4311
X6.565Y-2.6772
X6.571Y-1.283
X6.5748Y-1.5846
X6.6136Y-3.7436
X6.6136Y-3.8302
X6.6136Y-3.9602
X6.626Y-5.2323
X6.7028Y-3.4547
X6.7421Y-3.4252
X6.7576Y-5.6533
T3
X4.3476Y-1.2076
X4.3476Y-1.5076
X4.4476Y-1.2076
X4.4476Y-1.5076
X4.5476Y-1.2076
X4.5476Y-1.5076
X4.6476Y-1.2076
X4.6476Y-1.5076
T4
X6.0635Y-3.4157
X6.1635Y-3.4157
X6.2635Y-3.4157
X6.3635Y-3.4157
T2
G00X5.0942Y-1.166
M15
G01X5.0942Y-1.1935
M16
G05
G00X5.0981Y-1.5321
M15
G01X5.0981Y-1.5597
M16
G05
G00X5.1572Y-1.5321
M15
G01X5.1572Y-1.5597
M16
G05
G00X5.2438Y-1.5459
M15
G01X5.2162Y-1.5459
M16
G05
G00X5.3028Y-1.5321
M15
G01X5.3028Y-1.5597
M16
G05
G00X5.3619Y-1.5321
M15
G01X5.3619Y-1.5597
M16
G05
G00X5.3658Y-1.166
M15
G01X5.3658Y-1.1935
M16
G05
T0
M30
