%TF.GenerationSoftware,KiCad,Pcbnew,6.99.0-dfdedfa605*%
%TF.CreationDate,2022-05-26T14:34:28+01:00*%
%TF.ProjectId,keyboard-right,6b657962-6f61-4726-942d-72696768742e,dev-1*%
%TF.SameCoordinates,Original*%
%TF.FileFunction,Soldermask,Top*%
%TF.FilePolarity,Negative*%
%FSLAX46Y46*%
G04 Gerber Fmt 4.6, Leading zero omitted, Abs format (unit mm)*
G04 Created by KiCad (PCBNEW 6.99.0-dfdedfa605) date 2022-05-26 14:34:28*
%MOMM*%
%LPD*%
G01*
G04 APERTURE LIST*
G04 Aperture macros list*
%AMRoundRect*
0 Rectangle with rounded corners*
0 $1 Rounding radius*
0 $2 $3 $4 $5 $6 $7 $8 $9 X,Y pos of 4 corners*
0 Add a 4 corners polygon primitive as box body*
4,1,4,$2,$3,$4,$5,$6,$7,$8,$9,$2,$3,0*
0 Add four circle primitives for the rounded corners*
1,1,$1+$1,$2,$3*
1,1,$1+$1,$4,$5*
1,1,$1+$1,$6,$7*
1,1,$1+$1,$8,$9*
0 Add four rect primitives between the rounded corners*
20,1,$1+$1,$2,$3,$4,$5,0*
20,1,$1+$1,$4,$5,$6,$7,0*
20,1,$1+$1,$6,$7,$8,$9,0*
20,1,$1+$1,$8,$9,$2,$3,0*%
%AMRotRect*
0 Rectangle, with rotation*
0 The origin of the aperture is its center*
0 $1 length*
0 $2 width*
0 $3 Rotation angle, in degrees counterclockwise*
0 Add horizontal line*
21,1,$1,$2,0,0,$3*%
%AMFreePoly0*
4,1,19,0.500000,-0.750000,0.000000,-0.750000,0.000000,-0.744911,-0.071157,-0.744911,-0.207708,-0.704816,-0.327430,-0.627875,-0.420627,-0.520320,-0.479746,-0.390866,-0.500000,-0.250000,-0.500000,0.250000,-0.479746,0.390866,-0.420627,0.520320,-0.327430,0.627875,-0.207708,0.704816,-0.071157,0.744911,0.000000,0.744911,0.000000,0.750000,0.500000,0.750000,0.500000,-0.750000,0.500000,-0.750000,
$1*%
%AMFreePoly1*
4,1,19,0.000000,0.744911,0.071157,0.744911,0.207708,0.704816,0.327430,0.627875,0.420627,0.520320,0.479746,0.390866,0.500000,0.250000,0.500000,-0.250000,0.479746,-0.390866,0.420627,-0.520320,0.327430,-0.627875,0.207708,-0.704816,0.071157,-0.744911,0.000000,-0.744911,0.000000,-0.750000,-0.500000,-0.750000,-0.500000,0.750000,0.000000,0.750000,0.000000,0.744911,0.000000,0.744911,
$1*%
G04 Aperture macros list end*
%ADD10R,1.200000X0.900000*%
%ADD11O,1.800000X1.800000*%
%ADD12O,1.500000X1.500000*%
%ADD13R,3.500000X1.700000*%
%ADD14R,1.700000X3.500000*%
%ADD15RotRect,0.900000X1.200000X70.000000*%
%ADD16RoundRect,0.150000X-0.825000X-0.150000X0.825000X-0.150000X0.825000X0.150000X-0.825000X0.150000X0*%
%ADD17RoundRect,0.250000X-0.450000X0.262500X-0.450000X-0.262500X0.450000X-0.262500X0.450000X0.262500X0*%
%ADD18RoundRect,0.250000X0.475000X-0.250000X0.475000X0.250000X-0.475000X0.250000X-0.475000X-0.250000X0*%
%ADD19R,1.500000X0.800000*%
%ADD20R,2.000000X1.450000*%
%ADD21C,1.100000*%
%ADD22O,1.700000X0.850000*%
%ADD23O,0.850000X1.700000*%
%ADD24FreePoly0,180.000000*%
%ADD25FreePoly1,180.000000*%
%ADD26C,1.750000*%
%ADD27C,3.050000*%
%ADD28C,4.000000*%
%ADD29RoundRect,0.250000X1.025000X1.000000X-1.025000X1.000000X-1.025000X-1.000000X1.025000X-1.000000X0*%
%ADD30R,1.600000X1.600000*%
%ADD31O,1.600000X1.600000*%
%ADD32O,1.600000X2.000000*%
%ADD33RoundRect,0.250000X1.305205X0.589122X-0.621165X1.290263X-1.305205X-0.589122X0.621165X-1.290263X0*%
G04 APERTURE END LIST*
D10*
%TO.C,D10*%
X82325899Y-75133199D03*
X82325899Y-71833199D03*
%TD*%
%TO.C,D2*%
X44225899Y-75133199D03*
X44225899Y-71833199D03*
%TD*%
D11*
%TO.C,U2*%
X155288399Y-30178199D03*
D12*
X155588399Y-33208199D03*
X160438399Y-33208199D03*
D11*
X160738399Y-30178199D03*
D13*
X148223399Y-30048199D03*
X148223399Y-32588199D03*
X148223399Y-35128199D03*
X148223399Y-37668199D03*
X148223399Y-40208199D03*
X148223399Y-42748199D03*
X148223399Y-45288199D03*
X148223399Y-47828199D03*
X148223399Y-50368199D03*
X148223399Y-52908199D03*
X148223399Y-55448199D03*
X148223399Y-57988199D03*
X148223399Y-60528199D03*
X148223399Y-63068199D03*
X148223399Y-65608199D03*
X148223399Y-68148199D03*
X148223399Y-70688199D03*
X148223399Y-73228199D03*
X148223399Y-75768199D03*
X148223399Y-78308199D03*
X167803399Y-78308199D03*
X167803399Y-75768199D03*
X167803399Y-73228199D03*
X167803399Y-70688199D03*
X167803399Y-68148199D03*
X167803399Y-65608199D03*
X167803399Y-63068199D03*
X167803399Y-60528199D03*
X167803399Y-57988199D03*
X167803399Y-55448199D03*
X167803399Y-52908199D03*
X167803399Y-50368199D03*
X167803399Y-47828199D03*
X167803399Y-45288199D03*
X167803399Y-42748199D03*
X167803399Y-40208199D03*
X167803399Y-37668199D03*
X167803399Y-35128199D03*
X167803399Y-32588199D03*
X167803399Y-30048199D03*
D14*
X155473399Y-78978199D03*
X158013399Y-78978199D03*
X160553399Y-78978199D03*
%TD*%
D10*
%TO.C,D22*%
X120425899Y-113233199D03*
X120425899Y-109933199D03*
%TD*%
D15*
%TO.C,D28*%
X165126975Y-161495102D03*
X166255641Y-158394116D03*
%TD*%
%TO.C,D18*%
X171642456Y-143593957D03*
X172771122Y-140492971D03*
%TD*%
D10*
%TO.C,D9*%
X82325899Y-56083199D03*
X82325899Y-52783199D03*
%TD*%
%TO.C,D19*%
X120425899Y-56083199D03*
X120425899Y-52783199D03*
%TD*%
%TO.C,D5*%
X63275899Y-56083199D03*
X63275899Y-52783199D03*
%TD*%
%TO.C,D21*%
X120425899Y-94183199D03*
X120425899Y-90883199D03*
%TD*%
%TO.C,D27*%
X139475899Y-113233199D03*
X139475899Y-109933199D03*
%TD*%
%TO.C,D25*%
X139475899Y-75133199D03*
X139475899Y-71833199D03*
%TD*%
%TO.C,D8*%
X63275899Y-113233199D03*
X63275899Y-109933199D03*
%TD*%
%TO.C,D4*%
X44225899Y-113233199D03*
X44225899Y-109933199D03*
%TD*%
D15*
%TO.C,D23*%
X147225830Y-154979618D03*
X148354496Y-151878632D03*
%TD*%
D10*
%TO.C,D20*%
X120425899Y-75133199D03*
X120425899Y-71833199D03*
%TD*%
D16*
%TO.C,U1*%
X147283400Y-92786200D03*
X147283400Y-94056200D03*
X147283400Y-95326200D03*
X147283400Y-96596200D03*
X147283400Y-97866200D03*
X147283400Y-99136200D03*
X147283400Y-100406200D03*
X147283400Y-101676200D03*
X152233400Y-101676200D03*
X152233400Y-100406200D03*
X152233400Y-99136200D03*
X152233400Y-97866200D03*
X152233400Y-96596200D03*
X152233400Y-95326200D03*
X152233400Y-94056200D03*
X152233400Y-92786200D03*
%TD*%
D15*
%TO.C,D13*%
X153741314Y-137078474D03*
X154869980Y-133977488D03*
%TD*%
D17*
%TO.C,R2*%
X145750000Y-89087500D03*
X145750000Y-90912500D03*
%TD*%
D18*
%TO.C,C1*%
X152000000Y-90650000D03*
X152000000Y-88750000D03*
%TD*%
D10*
%TO.C,D26*%
X139475899Y-94183199D03*
X139475899Y-90883199D03*
%TD*%
D19*
%TO.C,J1*%
X167986399Y-92888199D03*
X167986399Y-93988199D03*
X167986399Y-95088199D03*
X167986399Y-96188199D03*
X167986399Y-97288199D03*
X167986399Y-98388199D03*
X167986399Y-99488199D03*
X167986399Y-100588199D03*
D20*
X170586399Y-89213199D03*
X162286399Y-89213199D03*
X170586399Y-102963199D03*
X162286399Y-102963199D03*
%TD*%
D10*
%TO.C,D14*%
X101375899Y-56083199D03*
X101375899Y-52783199D03*
%TD*%
%TO.C,D6*%
X63275899Y-75133199D03*
X63275899Y-71833199D03*
%TD*%
%TO.C,D11*%
X82325899Y-94183199D03*
X82325899Y-90883199D03*
%TD*%
D21*
%TO.C,J2*%
X132842000Y-30566000D03*
X132842000Y-36566000D03*
D22*
X132841999Y-39265999D03*
D23*
X136191999Y-39265999D03*
X129491999Y-39265999D03*
X129391999Y-29965999D03*
X136291999Y-29965999D03*
X134691999Y-39265999D03*
X130991999Y-39265999D03*
%TD*%
D10*
%TO.C,D16*%
X101375899Y-94183199D03*
X101375899Y-90883199D03*
%TD*%
%TO.C,D3*%
X44225899Y-94183199D03*
X44225899Y-90883199D03*
%TD*%
D24*
%TO.C,JP1*%
X166800000Y-81750000D03*
D25*
X165500000Y-81750000D03*
%TD*%
D10*
%TO.C,D15*%
X101375899Y-75133199D03*
X101375899Y-71833199D03*
%TD*%
%TO.C,D24*%
X139475899Y-56083199D03*
X139475899Y-52783199D03*
%TD*%
%TO.C,D17*%
X101375899Y-113233199D03*
X101375899Y-109933199D03*
%TD*%
D17*
%TO.C,R1*%
X167000000Y-83837500D03*
X167000000Y-85662500D03*
%TD*%
D10*
%TO.C,D1*%
X44225899Y-56083199D03*
X44225899Y-52783199D03*
%TD*%
%TO.C,D12*%
X82325899Y-113233199D03*
X82325899Y-109933199D03*
%TD*%
%TO.C,D7*%
X63275899Y-94183199D03*
X63275899Y-90883199D03*
%TD*%
D26*
%TO.C,SW1*%
X42320900Y-50623200D03*
D27*
X41050900Y-48083200D03*
D28*
X37240900Y-50623200D03*
D27*
X34700900Y-45543200D03*
D26*
X32160900Y-50623200D03*
D29*
X44325900Y-48083200D03*
X31398900Y-45543200D03*
%TD*%
D26*
%TO.C,SW20*%
X118520900Y-69673200D03*
D27*
X117250900Y-67133200D03*
D28*
X113440900Y-69673200D03*
D27*
X110900900Y-64593200D03*
D26*
X108360900Y-69673200D03*
D29*
X120525900Y-67133200D03*
X107598900Y-64593200D03*
%TD*%
D26*
%TO.C,SW10*%
X80420900Y-69673200D03*
D27*
X79150900Y-67133200D03*
D28*
X75340900Y-69673200D03*
D27*
X72800900Y-64593200D03*
D26*
X70260900Y-69673200D03*
D29*
X82425900Y-67133200D03*
X69498900Y-64593200D03*
%TD*%
D26*
%TO.C,SW25*%
X137570900Y-69673200D03*
D27*
X136300900Y-67133200D03*
D28*
X132490900Y-69673200D03*
D27*
X129950900Y-64593200D03*
D26*
X127410900Y-69673200D03*
D29*
X139575900Y-67133200D03*
X126648900Y-64593200D03*
%TD*%
D26*
%TO.C,SW17*%
X99470900Y-107773200D03*
D27*
X98200900Y-105233200D03*
D28*
X94390900Y-107773200D03*
D27*
X91850900Y-102693200D03*
D26*
X89310900Y-107773200D03*
D29*
X101475900Y-105233200D03*
X88548900Y-102693200D03*
%TD*%
D30*
%TO.C,SW29*%
X118049999Y-30673199D03*
D31*
X115509999Y-30673199D03*
X112969999Y-30673199D03*
X110429999Y-30673199D03*
X110429999Y-38293199D03*
X112969999Y-38293199D03*
X115509999Y-38293199D03*
X118049999Y-38293199D03*
%TD*%
D26*
%TO.C,SW26*%
X137570900Y-88723200D03*
D27*
X136300900Y-86183200D03*
D28*
X132490900Y-88723200D03*
D27*
X129950900Y-83643200D03*
D26*
X127410900Y-88723200D03*
D29*
X139575900Y-86183200D03*
X126648900Y-83643200D03*
%TD*%
D32*
%TO.C,Brd1*%
X161633399Y-86758199D03*
X159093399Y-86758199D03*
X156553399Y-86758199D03*
X154013399Y-86758199D03*
%TD*%
D26*
%TO.C,SW15*%
X99470900Y-69673200D03*
D27*
X98200900Y-67133200D03*
D28*
X94390900Y-69673200D03*
D27*
X91850900Y-64593200D03*
D26*
X89310900Y-69673200D03*
D29*
X101475900Y-67133200D03*
X88548900Y-64593200D03*
%TD*%
D26*
%TO.C,SW24*%
X137570900Y-50623200D03*
D27*
X136300900Y-48083200D03*
D28*
X132490900Y-50623200D03*
D27*
X129950900Y-45543200D03*
D26*
X127410900Y-50623200D03*
D29*
X139575900Y-48083200D03*
X126648900Y-45543200D03*
%TD*%
D26*
%TO.C,SW18*%
X171719774Y-137811687D03*
D27*
X171395095Y-134990502D03*
D28*
X166946135Y-136074225D03*
D27*
X166296778Y-130431855D03*
D26*
X162172496Y-134336763D03*
D33*
X174472588Y-136110618D03*
X163193913Y-129302505D03*
%TD*%
D26*
%TO.C,SW6*%
X61370900Y-69673200D03*
D27*
X60100900Y-67133200D03*
D28*
X56290900Y-69673200D03*
D27*
X53750900Y-64593200D03*
D26*
X51210900Y-69673200D03*
D29*
X63375900Y-67133200D03*
X50448900Y-64593200D03*
%TD*%
D26*
%TO.C,SW21*%
X118520900Y-88723200D03*
D27*
X117250900Y-86183200D03*
D28*
X113440900Y-88723200D03*
D27*
X110900900Y-83643200D03*
D26*
X108360900Y-88723200D03*
D29*
X120525900Y-86183200D03*
X107598900Y-83643200D03*
%TD*%
D26*
%TO.C,SW4*%
X42320900Y-107773200D03*
D27*
X41050900Y-105233200D03*
D28*
X37240900Y-107773200D03*
D27*
X34700900Y-102693200D03*
D26*
X32160900Y-107773200D03*
D29*
X44325900Y-105233200D03*
X31398900Y-102693200D03*
%TD*%
D26*
%TO.C,SW23*%
X147303146Y-149197348D03*
D27*
X146978467Y-146376163D03*
D28*
X142529507Y-147459886D03*
D27*
X141880150Y-141817516D03*
D26*
X137755868Y-145722424D03*
D33*
X150055960Y-147496279D03*
X138777285Y-140688166D03*
%TD*%
D26*
%TO.C,SW11*%
X80420900Y-88723200D03*
D27*
X79150900Y-86183200D03*
D28*
X75340900Y-88723200D03*
D27*
X72800900Y-83643200D03*
D26*
X70260900Y-88723200D03*
D29*
X82425900Y-86183200D03*
X69498900Y-83643200D03*
%TD*%
D26*
%TO.C,SW19*%
X118520900Y-50623200D03*
D27*
X117250900Y-48083200D03*
D28*
X113440900Y-50623200D03*
D27*
X110900900Y-45543200D03*
D26*
X108360900Y-50623200D03*
D29*
X120525900Y-48083200D03*
X107598900Y-45543200D03*
%TD*%
D26*
%TO.C,SW5*%
X61370900Y-50623200D03*
D27*
X60100900Y-48083200D03*
D28*
X56290900Y-50623200D03*
D27*
X53750900Y-45543200D03*
D26*
X51210900Y-50623200D03*
D29*
X63375900Y-48083200D03*
X50448900Y-45543200D03*
%TD*%
D26*
%TO.C,SW27*%
X137570900Y-107773200D03*
D27*
X136300900Y-105233200D03*
D28*
X132490900Y-107773200D03*
D27*
X129950900Y-102693200D03*
D26*
X127410900Y-107773200D03*
D29*
X139575900Y-105233200D03*
X126648900Y-102693200D03*
%TD*%
D26*
%TO.C,SW16*%
X99470900Y-88723200D03*
D27*
X98200900Y-86183200D03*
D28*
X94390900Y-88723200D03*
D27*
X91850900Y-83643200D03*
D26*
X89310900Y-88723200D03*
D29*
X101475900Y-86183200D03*
X88548900Y-83643200D03*
%TD*%
D26*
%TO.C,SW8*%
X61370900Y-107773200D03*
D27*
X60100900Y-105233200D03*
D28*
X56290900Y-107773200D03*
D27*
X53750900Y-102693200D03*
D26*
X51210900Y-107773200D03*
D29*
X63375900Y-105233200D03*
X50448900Y-102693200D03*
%TD*%
D26*
%TO.C,SW13*%
X153818630Y-131296204D03*
D27*
X153493951Y-128475019D03*
D28*
X149044991Y-129558742D03*
D27*
X148395634Y-123916372D03*
D26*
X144271352Y-127821280D03*
D33*
X156571444Y-129595135D03*
X145292769Y-122787022D03*
%TD*%
D26*
%TO.C,SW3*%
X42320900Y-88723200D03*
D27*
X41050900Y-86183200D03*
D28*
X37240900Y-88723200D03*
D27*
X34700900Y-83643200D03*
D26*
X32160900Y-88723200D03*
D29*
X44325900Y-86183200D03*
X31398900Y-83643200D03*
%TD*%
D26*
%TO.C,SW28*%
X165204291Y-155712832D03*
D27*
X164879612Y-152891647D03*
D28*
X160430652Y-153975370D03*
D27*
X159781295Y-148333000D03*
D26*
X155657013Y-152237908D03*
D33*
X167957105Y-154011763D03*
X156678430Y-147203650D03*
%TD*%
D26*
%TO.C,SW7*%
X61370900Y-88723200D03*
D27*
X60100900Y-86183200D03*
D28*
X56290900Y-88723200D03*
D27*
X53750900Y-83643200D03*
D26*
X51210900Y-88723200D03*
D29*
X63375900Y-86183200D03*
X50448900Y-83643200D03*
%TD*%
D26*
%TO.C,SW14*%
X99470900Y-50623200D03*
D27*
X98200900Y-48083200D03*
D28*
X94390900Y-50623200D03*
D27*
X91850900Y-45543200D03*
D26*
X89310900Y-50623200D03*
D29*
X101475900Y-48083200D03*
X88548900Y-45543200D03*
%TD*%
D26*
%TO.C,SW9*%
X80420900Y-50623200D03*
D27*
X79150900Y-48083200D03*
D28*
X75340900Y-50623200D03*
D27*
X72800900Y-45543200D03*
D26*
X70260900Y-50623200D03*
D29*
X82425900Y-48083200D03*
X69498900Y-45543200D03*
%TD*%
D26*
%TO.C,SW2*%
X42320900Y-69673200D03*
D27*
X41050900Y-67133200D03*
D28*
X37240900Y-69673200D03*
D27*
X34700900Y-64593200D03*
D26*
X32160900Y-69673200D03*
D29*
X44325900Y-67133200D03*
X31398900Y-64593200D03*
%TD*%
D26*
%TO.C,SW22*%
X118520900Y-107773200D03*
D27*
X117250900Y-105233200D03*
D28*
X113440900Y-107773200D03*
D27*
X110900900Y-102693200D03*
D26*
X108360900Y-107773200D03*
D29*
X120525900Y-105233200D03*
X107598900Y-102693200D03*
%TD*%
D26*
%TO.C,SW12*%
X80420900Y-107773200D03*
D27*
X79150900Y-105233200D03*
D28*
X75340900Y-107773200D03*
D27*
X72800900Y-102693200D03*
D26*
X70260900Y-107773200D03*
D29*
X82425900Y-105233200D03*
X69498900Y-102693200D03*
%TD*%
M02*
